<svg xmlns="http://www.w3.org/2000/svg" viewBox="0 0 64 64" role="img" aria-labelledby="titulo descripcion">
  <title id="titulo">Mi Recetario</title>
  <desc id="descripcion">Un plato con una hoja</desc>
  <rect width="64" height="64" rx="15" fill="#f7f5f0"/>
  <path d="M14 31.5h36c0 12-7.1 19-18 19s-18-7-18-19Z" fill="#356044"/>
  <path d="M11 28.5c0-2.2 1.8-4 4-4h34c2.2 0 4 1.8 4 4v3H11v-3Z" fill="#fff" stroke="#356044" stroke-width="3"/>
  <path d="M24 53.5h16" fill="none" stroke="#356044" stroke-linecap="round" stroke-width="3"/>
  <path d="M32 23c.4-7.1 4.2-11.1 11.5-12-1 7.1-4.8 11.1-11.5 12Z" fill="#83a489"/>
  <path d="M31.5 24c-.8-5.8-3.9-9.1-9.5-10 0 5.6 3 9 9.5 10Z" fill="#adc3ae"/>
</svg>
